<?xml version="1.0" encoding="UTF-8"?><svg xmlns="http://www.w3.org/2000/svg" id="i_1" data-name="i 1" viewBox="0 0 2835 2835"><defs><style>.cls-1{fill-rule:evenodd}</style></defs><path id="z_2" d="M1170 226.772s73.51 157.854-92 347.228c-71.27 81.543-241.286 112.864-430.177 250.239S148 1401 148 1401s310.477-331.73 450-354 172.76 41.17 178 51c33.407 109.39-123.433 166.36-183 275-63.063 115.01-34.682 208.62-17 262 11.816 35.67 101 130 101 130l142-120s-31.795-67.84-14-134c18.168-65.35 78-93 78-93s-73.961 83.82-13 185c77.93 121.92 219 39 219 39s-18.5 57.91-132 74c-66.367.99-138-69-138-69l-141 119s55.122 37.17 83 48c129.8 50.42 277.01 19.68 302 140 14 78.38-94.818 191.54-225 253-136.024 64.21-294 75-294 75s230.567 63.02 426-58c43.22-26.77 148.39-94.89 225-201 36.72-50.86 57.65-126.95 88-172 37.8-56.11 84.51-74.04 128-51 98.08 59.46-5.26 211.96-97 308-55.88 58.5-114 94-114 94s130.13-44.72 246-151c69.06-63.34 140.21-185.71 156-231 62.75-179.97-145.64-175.83-153-202-3.46-12.3 85.9-61.52 189-76 116.27-16.33 234.36 1.06 236 100 5.72 113.66-36.84 310.1-163 481-122.34 165.73-348 304-348 304s100.95-45.72 220-108c17.21-9 235.38-161.07 294-249 123.11-171.18 169.32-360.59 172.84-388.72s12.3-73.67-9.84-145.28c-38.85-144.63-113.54-157.25-164-299-37.17-97.66-18.32-197.12-12-217 57.91-248.27 317.74-244.921 422-206 127.59 61.355 128.73 159.455 138 254 7.89 80.45-8.99 216.82-134.04 199.03-24.65-7.15-103.45-50.03-97.96-169.03 8.96-123.621 104-210 104-210s-191.52 22.926-239 195c-19.07 69.1-13.01 207.43 96.69 327.95 49.05 49.06 105.36 85.67 56.31 272.05-55.59 271.4-247 419-247 419 17.22 8.72 200.45-68.6 372-202 154.33-120.01 300.01-293.17 293-357-29.49-268.4 126.42-380.24 81-326l-388-667s-238.5-30.568-422 29c-46.95 15.242-115.88 76.875-144 132s-32.43 193.378-34 187c-21.45-22.891-85.88-113.75-24-224s151.21-91.851 199-93c213.16-57.153 407.89-100.089 408-100 0 0-664.91-194.232-842 86-99.16 207.54 68.85 171.065 107 452 12.26 116.27-7.18 209.96-126 286s-253.89 68.72-322 41c-21.86-8.9-101.99-25.43-75-234 21.3-164.619 198.05-358.263 208-597s-84-288.228-84-288.228Z" class="cls-1" data-name="z 2"/><path id="Xz_3" d="M1680 1730c-9.81 7.36 38.14 93.49 19 171-20.79 84.21-99 153-99 153s62.72-43.25 102-93c24.74-31.34 33-78 33-78s6.43-51.63-7-89c-14.05-39.09-38.19-71.36-48-64Z" class="cls-1" data-name="Xz 3"/><path id="Xz_4" d="M1360.55 2338.16s-85.16 45.91-171.67 66.95c-102.65 24.97-209.427 30.9-209.427 30.9s72.017 16.74 139.047 20.6c49.61 2.86 99.57-6.86 99.57-6.86s51.4-16.77 84.11-41.2c38.12-28.47 58.37-70.39 58.37-70.39Z" class="cls-1" data-name="Xz 4"/><path id="Xz_5" d="M1049.09 2307.41s-51.03 31.13-107.379 38.59c-57.722 7.64-120.8-8.39-120.8-8.39s57.156 52.19 130.866 40.26 97.313-70.46 97.313-70.46Z" class="cls-1" data-name="Xz 5"/><path id="Xz_6" d="M1622 2468s258.14-73.81 386-142c230.14-124.45 248-245 248-245s-146.28 131.04-308 225c-159.26 92.53-326 162-326 162Z" class="cls-1" data-name="Xz 6"/><path id="Xz_2" d="M800 1543s-4.072 47.55 23 90c17.283 34.81 48 53 48 53l-121 123s-48.847-14.48-83-48c-45.262-44.42-85-113-85-113Z" class="cls-1" data-name="Xz 2"/><path id="Xz_1" d="M2314 1019s-39.54 83.9-41 100 7.26 45.27 38 46 34.73-28.16 34-45-31-101-31-101Z" class="cls-1" data-name="Xz 1"/><path id="f_1" d="M1893 471h395v203h-395z" data-name="f 1"/><circle id="t_1" cx="1305.5" cy="1073.498" r="124.84" data-name="t 1"/><path id="z_1" d="M0 1417.5C0 2199.12 635.883 2835 1417.5 2835S2835 2199.12 2835 1417.5 2199.12 0 1417.5 0 0 635.883 0 1417.5Zm222.822 0c0-658.749 535.929-1194.678 1194.678-1194.678S2612.18 758.751 2612.18 1417.5 2076.25 2612.18 1417.5 2612.18 222.822 2076.25 222.822 1417.5Z" class="cls-1" data-name="z 1"/></svg>