<?xml version="1.0" encoding="UTF-8"?><svg xmlns="http://www.w3.org/2000/svg" id="图层_1" data-name="图层 1" viewBox="0 0 505 528"><defs><style>.cls-1{fill:#eae9e6}.cls-1,.cls-2,.cls-3{fill-rule:evenodd}.cls-2{fill:#f7c663}.cls-3{fill:#32343e}</style></defs><path d="m259 0 12.41 6 1 136L369 40l136 51-244 139ZM247 61v169L9 93s12.44 4.81 27 9c9.79 2.82 22.35 3.8 31 6 9.73 2.47 15 6 15 6s-.76 15.52 11 21c4.47 2.08 10.64 2.18 15 4s10.33 14.28 23 18a101.49 101.49 0 0 0 13 2.78c7.94 1.22 14 0 21 .22a188.72 188.72 0 0 1 20 2s1.09 16.41 14 27c4.19 3.44 8 10.05 19 15 13.78 7.42 18.18 4.87 15 5 5.08-.2 2-6 2-6s-3 6.23-11-1c6.2 5.63-20.89-12.58-25-21-3.49-7.16-5.77-11.4-6-18-.09-2.65 2.83-4.73 2-9-.37-1.87-9.65-8.37-28-12-5.64-1.12-12.37-1.82-19.27-2.45-4.75-.44-10.12-3.07-14.73-3.55-7-.72-13 .62-18-.84-7.86-2.3-14-4.7-17-7.16-13.75-11.25 1.28-22.76 0-34-10.17-17.06-29-25-29-25l45-17s-2.73 26.54 6 53c4.92 6.24-6.62 13.82 21 24 14.16 6 29.55 4.73 31 4s-2-10-2-10 9.49-6.63 31 8c7.22 4.91 11.54 9.86 14.13 14.05 2.37 3.83.51 4 .87 5.95.24 1.28 3 5 3 5s-1.89 15.72 3 20c4.38 3.33 8.43-6.58 8-9-1.77-10.27-15.41-33.78-25-40-13.23-8.57-18.71-7.86-29-10-1.71-.36-.73 1.27-4 2s-18-5-18-5 17.63 12.09 6 15c-27.28.86-29-22-29-22s-5.19-6.24-7-12c-3.25-10.33-4-23-4-23s11 14.16 23 23c8.35 6.16 19 8 19 8s-21.9-10.93-15-36 24-37 24-37-13.09 12-8 40a48.36 48.36 0 0 0 4.43 13c3.6 7.19 19.56 13.05 24.57 18 9 8.84 7 14 7 14s-1.26-30.62 11-61c10.62-26.33 35-53 35-53s-20.28 51.55-22 95c-1.18 30 16 57 16 57a60.17 60.17 0 0 0-1-22c-2.52-10-9.77-20.12-9-29 2.26-26 18-41 18-41Z" class="cls-1"/><path d="M214.9 289.54s4.21 8.33 5.15 22.47c.92 13.91-1.45 33.59-.53 44.23.53 6.24 3.34 9.18 3.07 10-1.2 3.51-2.42 6.18-4.9 5.34s-.75-39.45-4.47-52.51c-6.6-23.21-17.93-26.56-17.93-26.56S184.62 302 174 304s-29.81-2.25-63.9 19c-47 29.33-46.32 85.25-46.32 85.25s8.06-5.51 21.68-7.59c6.95-1.06 19.24 2 24.64.47 9-2.5 7.89-8 7.89-8s-34.1-13.32-2-60c15.89-23.12 56.84-18.57 56.84-18.57s-19.68 3.7-23.5 14.07c-9.22 25.61 4.09 38.9 4.09 38.9s-4-8.48.93-13.42 13.76-5.43 13.76-5.43-5.84 6.57 5.06 23.66c9.76 15.28 23 21.82 35.94 38.46 6.49 8.35 11.17 21.19 16.21 30a51.22 51.22 0 0 0 14.18 16.13s-9.94-.37-20.09-11.83c-6.51-7.35-13.86-23.92-21.2-34.38-8.37-11.93-16.69-17.88-23-26.55-16.7-23.06-13-30.26-13-30.26a7.42 7.42 0 0 0-4.9 6.28c-.52 6.42 3 16.73 3 16.73s-16.79-3.83-20.77-19.4c-4.44-15 4.81-34.14 4.81-34.14s-43 16.1-32.33 54.67c2.93 7.52 14.18 18.31 25.65 18 8.05-.21 10.15-12.5 22.68-9.44 12.09 3.33 16.94 22.07 16.94 22.07s-9.79-.07-13.79-4.28c-1.69-1.76 2.6-4.79 1.94-7.59s-4.23-3.95-6-4.47c-6.26-1.88-10.84 7.69-10.84 7.69s-16.64 1.6-22.7 8.48c-13.74 13.48-4.92 22.93-4.92 22.93s16.12-33.25 56.52 8.56c9.55 34.33-14.09 12.93-25.8 4.3-6.84-5-9.94-5.88-9.94-5.88l55 49.79s-.88-27.33-2.29-37.69c-1.32-9.62-4.43-18.39-1.12-14.83 6.89 7.42 11.52 50.13 13.45 56.51s40.48 32.93 40.48 32.93l1.85-11.77s-14.11-13.1-19.31-20.82c-9.88-14.8-15.32-37.11-15.32-37.11s9.35 19.1 18.29 28.46c7.68 8 15.14 9.45 15.14 9.45l-1.85-66.2s-22 .93-34.11-26.77c-2.65-6-20.31-52.77-22.27-61.17-6.62-23.24 7.57-23.63 10.72-14.35s1 29.63 8.37 52.87 13.58 31 19.19 34 11.18-.84 13.87-4.5c3.54-4.82 3.84-16.51 3.84-16.51s-5.83 9.85-9.91 8.13c-4.84-2-8.51-6.45-8.78-10.8s3.54-8.23 8-11a103.11 103.11 0 0 1 12.41-6.47L247 263a74.64 74.64 0 0 0-18.5 10.65c-7.92 6.53-13.6 15.89-13.6 15.89Z" class="cls-2"/><path d="M247 247s-59.31-39.79-119-74C64.79 136.77 0 105 0 105s8.61 70.24 37 95c39.69 34.62 49 1 49 1s-2.73-6.56-6-10c-5.9-6.2-10.26-11-14-11s-5.61 4.48-3 10c1.66 3.51 12 9 12 9s-7.42 4.09-14 0c-9.86-6.14-19.13-22.18-9-30 2.22-.83 12 3 21 9a136.93 136.93 0 0 1 18 15s.14-14.56 19-11c8.16 1.54 30.09 16.93 40 21 31.69 13 68.75 40.5 70 43s1.24 15.13-5 17-4-15-4-15 5.14-5.17-56-37-50-24.87-55-23-5.23 19.42-17 29c-9.48 7.72-26 6-26 6s-8.43 12.78-9 26c-.39 8.91 7 20 7 20s3.43-30.38 34-36 46 18 46 18-19.6-18.35-37-10c-18.63 8.94-34.4 46.37-50 42-5.5-1.54-9.11-10.69-12-24-3.62-16.66-15-28-15-28a117.65 117.65 0 0 1 10 43c.58 19-8.57 42.1-1 53 4.1 5.9 28-37.37 58-53 15.54-8.09 43.26 1.63 47 6s-52.06 29.12-55.85 30-1.63-1.81 6.83-10.11c6.93-6.79 20.41-7.17 22-11.89 1.19-4.62-14.26-10.12-18-7-1.71 1.37-11.08 1-20.28 14.71-8.69 13 7-3.34-3 12.16-1.87 2.88-3.67 5.81-5.4 8.72-4 6.78-5.63 17.61-8.79 23.88-8.62 17.1-15.77 26.45-15.77 26.45s14.4-8.68 35.32-29.48c7-7-17.19 3.85-8.52-3.37a272.19 272.19 0 0 1 36.46-25.9c6.91-4 9 .31 15-2.17 14.1-5.81 27.51-5 40-8a216.86 216.86 0 0 0 40-14s-20.87 3.13-32-8c-10.87-10.87-12-36-12-36l6 5s.43 11.16 8 18c4 3.59 11.23 4.4 16 6a17.94 17.94 0 0 1 7 4 30.41 30.41 0 0 1-2-8c-.22-2.55 1.38-4.53.16-7.47A21.16 21.16 0 0 0 182 251c-8.22-8.73-24.35-14.75-30.59-20.11A5.84 5.84 0 0 1 150 224c4.37-8.74 44.2 17.64 47 21s-.32 27.71 14 28c4 .08 11.5-5.44 18.57-11.51 1.53-1.31 0-3.18 1.43-4.49 6.64-6 16-10 16-10Z" class="cls-2"/><path d="m265 241 239-139-44 252-18-11 14-92-134 23ZM435 356l18 11-192 161V252l53 34 48 131Z" class="cls-3"/></svg>