<?xml version="1.0" encoding="UTF-8"?><svg xmlns="http://www.w3.org/2000/svg" width="870" height="901" style="shape-rendering:geometricPrecision;text-rendering:geometricPrecision;image-rendering:optimizeQuality;fill-rule:evenodd;clip-rule:evenodd"><path fill="#e9e9e5" d="M443.5-.5h1a660.24 660.24 0 0 1 21.5 11c.618 58.002.951 116.002 1 174l-21-11a12353.012 12353.012 0 0 1-2.5-174Z" style="opacity:.947"/><path fill="#e9e9e5" d="M431.5 1.5c.876-.13 1.543.202 2 1-19.251 49.339-31.751 100.339-37.5 153a300.154 300.154 0 0 0 0 32c-18.317 6.995-36.65 13.995-55 21a1887.202 1887.202 0 0 0-26.5-6c-4.605 2.798-9.605 3.631-15 2.5a223.494 223.494 0 0 0-17-4c5.462 3.951 9.128 9.118 11 15.5-.383 3.553-2.383 5.72-6 6.5-19.928 2.039-35.428-5.127-46.5-21.5a49.73 49.73 0 0 1-5-15c-4.4-6.743-8.4-13.743-12-21-4.042-13.905-6.209-27.905-6.5-42a242.908 242.908 0 0 0 39 39.5c8.457 6.233 17.79 10.233 28 12-18.368-13.067-25.868-30.9-22.5-53.5 6.211-28.44 20.544-51.773 43-70a417.758 417.758 0 0 1-8 14c-10.127 27.07-8.794 53.737 4 80l6.5 6.5a945.367 945.367 0 0 1 35 22 56.164 56.164 0 0 1 10.5 15.5c.719-58.496 18.719-110.83 54-157a1030.691 1030.691 0 0 0 24.5-31Z" style="opacity:.955"/><path fill="#e9e9e5" d="M633.5 68.5a33409.056 33409.056 0 0 1 235 88.5 28081.163 28081.163 0 0 1-195 112c-2.15 1.59-4.483 2.257-7 2a11163.833 11163.833 0 0 1-157-71 23068.988 23068.988 0 0 1 124-131.5Z" style="opacity:.986"/><path fill="#e9e9e5" d="M205.5 89.5c1.294 1.548 1.961 3.548 2 6-2.042 30.873 2.125 60.873 12.5 90-1.144 9.91 2.023 18.077 9.5 24.5 16.354 10.009 34.021 16.676 53 20a745.26 745.26 0 0 1-23.5 10.5c-16.023-5.31-32.523-7.477-49.5-6.5a131.318 131.318 0 0 1-27-10c-8.315-4.798-12.982-11.965-14-21.5a142.691 142.691 0 0 1 9.5-30 37.973 37.973 0 0 0 1-10c-12.603-18.766-29.103-33.099-49.5-43a5454.05 5454.05 0 0 1 76-30Z" style="opacity:.962"/><path fill="#e9e9e5" d="M435.5 104.5a1156.835 1156.835 0 0 1 1 68l-32 11c.734-30.218 11.067-56.552 31-79Z" style="opacity:.943"/><path fill="#e9e9e5" d="M25.5 161.5c1.1-1.098 2.434-1.265 4-.5 29.89 12.223 60.89 20.223 93 24a116.098 116.098 0 0 1 29 10.5c.494 13.001 5.161 24.167 14 33.5a36.16 36.16 0 0 0 7 4 306.406 306.406 0 0 1 26 7 330.337 330.337 0 0 1 15 15.5c-4.402 2.74-9.068 4.574-14 5.5a22801.85 22801.85 0 0 0-174-99.5Z" style="opacity:.922"/><path fill="#30343d" d="M869.5 165.5v2a300950.319 300950.319 0 0 1-77 433l-29-17.5c-1.394-.956-2.061-2.289-2-4a18773.953 18773.953 0 0 1 24-155 4332.872 4332.872 0 0 0-129 21.5 5734.984 5734.984 0 0 1 18.5-168 19152.055 19152.055 0 0 1 194.5-112Z" style="opacity:.985"/><path fill="#edc162" d="M-.5 170.5a22313.653 22313.653 0 0 1 177 92 263.27 263.27 0 0 1 5.5 41 202.038 202.038 0 0 0-12.5 11c-4.549 2.369-8.715 5.369-12.5 9-17.97-19.403-39.47-33.403-64.5-42-3.188.356-5.355 2.023-6.5 5-4.276 7.58-4.276 15.247 0 23 5.254 12.255 14.087 20.755 26.5 25.5 5.209.866 10.209.199 15-2l-16-11c-5.063-5.796-6.23-12.296-3.5-19.5 2.653-2.694 5.82-3.527 9.5-2.5 14.207 8.873 24.874 20.873 32 36-4.818 15.991-15.484 24.824-32 26.5-14.452-1.539-27.452-6.706-39-15.5-23.582-16.932-40.416-39.098-50.5-66.5-13.592-35.04-23.092-71.04-28.5-108v-2Z" style="opacity:.97"/><path fill="#f6f3eb" d="M441.5 200.5c5.214.44 9.881 2.274 14 5.5 8.978 7.495 15.312 16.662 19 27.5-6.675-.166-13.342 0-20 .5a1052.908 1052.908 0 0 1-47 19 186.903 186.903 0 0 0 25-21c-12.352-5.042-23.019-12.375-32-22 .601-2.637 2.267-3.804 5-3.5-.415 2.448.585 3.781 3 4 11.353-2.566 22.353-5.899 33-10Z" style="opacity:.917"/><path fill="#e9e9e5" d="M303.5 211.5c9.006-.166 18.006 0 27 .5a346.214 346.214 0 0 1-24 9.5 21.841 21.841 0 0 1-3-10Z" style="opacity:.753"/><path fill="#f6f3eb" d="M501.5 240.5a12.93 12.93 0 0 1 5 .5 372.616 372.616 0 0 1 33.5 31.5 32.02 32.02 0 0 1 3.5 9l-3.5 1a771.992 771.992 0 0 0-70.5-5.5A873.839 873.839 0 0 0 363 305.5c-14.099-6.932-24.266-17.599-30.5-32 .333-1 1-1.667 2-2a31.606 31.606 0 0 0 8.5 2 555.197 555.197 0 0 0 28.5-2.5 1529.084 1529.084 0 0 1 130-30.5Z" style="opacity:.956"/><path fill="#f6f3eb" d="M447.5 301.5c9.188 2.347 17.022 7.014 23.5 14a300.816 300.816 0 0 1 30 41c.167-15.011.667-30.011 1.5-45a153.272 153.272 0 0 1 6.5 21 804.447 804.447 0 0 1 13.5 72 18.453 18.453 0 0 1-6-.5 203.945 203.945 0 0 1-15.5-18.5 3179.315 3179.315 0 0 1-55-78c-.748-2.34-.248-4.34 1.5-6Z" style="opacity:.915"/><path fill="#f6f3eb" d="M398.5 303.5c12.458 3.788 19.458 12.121 21 25-4.715 22.259-12.382 43.425-23 63.5-9.117-4.03-18.783-6.696-29-8a748.53 748.53 0 0 0-36-2c-4.143-1.957-6.476-5.124-7-9.5a231.136 231.136 0 0 1 25 0 317.241 317.241 0 0 0 22-2.5 1147.81 1147.81 0 0 1 27-66.5Z" style="opacity:.948"/><path fill="#edc162" d="M169.5 314.5a90.914 90.914 0 0 1 12.5-4 1572.853 1572.853 0 0 1 13.5 84 157.674 157.674 0 0 0-42-2.5c-23.966 4.977-41.132 18.477-51.5 40.5a193.802 193.802 0 0 0-7 21c-10.59-13.691-14.256-29.024-11-46a118.927 118.927 0 0 1 13.5-33 118.902 118.902 0 0 0 36-5.5c8.728-4.061 15.561-10.228 20.5-18.5a351.318 351.318 0 0 0 15.5-36Z" style="opacity:.955"/><path fill="#edc162" d="M36.5 387.5c8.54 8.719 15.374 18.719 20.5 30a402.775 402.775 0 0 1 11 38c2.434 7.374 6.267 13.874 11.5 19.5 4.814 2.893 9.814 3.226 15 1 9.336-5.327 17.503-12.161 24.5-20.5l28-34c7.382-8.272 16.216-14.439 26.5-18.5a118.112 118.112 0 0 1 22-1.5c3.04 19.613 5.707 39.28 8 59-16.805-3.144-33.472-2.644-50 1.5-20.153 11.47-37.986 25.97-53.5 43.5A1469.754 1469.754 0 0 1 58.5 553c-2.269 1.558-4.602 1.724-7 .5-4.017-6.913-5.684-14.413-5-22.5a985.854 985.854 0 0 1 6.5-57.5c.627-18.277-1.373-36.277-6-54a598.544 598.544 0 0 0-10.5-32Z" style="opacity:.954"/><path fill="#f6f3eb" d="M489.5 415.5a31.818 31.818 0 0 1 12 1.5c11.658 6.984 22.158 15.484 31.5 25.5 4.246 3.991 7.08 8.824 8.5 14.5-3.416 3.636-5.916 8.469-7.5 14.5a4860.354 4860.354 0 0 1-20 154c-3.526 4.182-8.026 6.682-13.5 7.5a389.182 389.182 0 0 1-72.5 1.5 2315.642 2315.642 0 0 0-51.5 3.5l-8.5-8.5c-3.937-5.975-3.104-11.142 2.5-15.5a118 118 0 0 0 18-10c-7.921-3.586-13.421-9.42-16.5-17.5a661.26 661.26 0 0 1-12-78c-7.182 26.446-9.182 53.113-6 80-1.726 1.076-3.559 1.243-5.5.5-11.318-4.248-20.818-11.082-28.5-20.5-2.116-4.128-3.116-8.461-3-13a1128.88 1128.88 0 0 0 41-69 279.608 279.608 0 0 0-3.5-27l1-5c6.292-.304 12.292 1.196 18 4.5 8.848 5.188 16.681 11.688 23.5 19.5a2000.203 2000.203 0 0 1-7 93 64.218 64.218 0 0 0 0 16c7.21-6.698 13.043-14.365 17.5-23-3.874-11.319-5.54-22.985-5-35a138.58 138.58 0 0 1 1.5-21c.519-1.016 1.353-1.682 2.5-2 4.553 1.716 8.053 4.716 10.5 9 3.242 6.969 4.909 14.302 5 22 1.549-2.503 3.216-2.503 5 0 2.387 3.828 3.554 7.995 3.5 12.5a78.314 78.314 0 0 1-4 20.5c-9.006 7.806-16.173 16.806-21.5 27a1008.633 1008.633 0 0 0 38-19c-3.001-30-6.668-60-11-90a17.842 17.842 0 0 0-4.5 5.5c-.667.667-1.333.667-2 0a112.56 112.56 0 0 1 4-19.5 46.948 46.948 0 0 1-5-12 12.93 12.93 0 0 1 5 .5 70.588 70.588 0 0 1 10.5 9.5 318.632 318.632 0 0 1 23.5 34 7767.731 7767.731 0 0 1-7.5 91 1036.334 1036.334 0 0 1-68.5 23.5 360.065 360.065 0 0 0 76-5 156.393 156.393 0 0 0 23-8c7.892-5.569 13.059-13.069 15.5-22.5a305.975 305.975 0 0 0 4-38c.667-24.667.667-49.333 0-74a153.173 153.173 0 0 0-4-26c-5.184 7.885-8.184 16.551-9 26a964.763 964.763 0 0 0-3 62 520.86 520.86 0 0 1-3.5 32c-4.081-.9-7.581-2.9-10.5-6-4.728-5.121-7.561-11.121-8.5-18a1899.877 1899.877 0 0 1 4.5-51c1.067-1.783 2.567-2.283 4.5-1.5l7.5 5.5a9855.764 9855.764 0 0 0 9.5-69 43.809 43.809 0 0 1-4-12Z" style="opacity:.944"/><path fill="#edc162" d="M155.5 472.5c10.666-1.277 20.333 1.223 29 7.5 3.724 3.404 3.724 6.737 0 10a474.394 474.394 0 0 0-32 14 241.166 241.166 0 0 0-18 19c5.204-.754 10.204-2.42 15-5a1515.003 1515.003 0 0 0 57.5-27.5 139.718 139.718 0 0 1 4.5 20.5l-1 2.5a156.957 156.957 0 0 1-19 6c-5.391-1.434-10.724-1.267-16 .5a485.454 485.454 0 0 0-68 49 73.87 73.87 0 0 0 16-2.5c2.682-.423 3.848.577 3.5 3-19.219 19.731-40.052 37.397-62.5 53-1.021-.502-1.188-1.168-.5-2 18.055-24.446 31.055-51.446 39-81a845.416 845.416 0 0 0 17.5-30c-1.503-.552-3.169-.552-5 0-.04-2.925.793-5.591 2.5-8 5.5-9.5 13-17 22.5-22.5 5.342-1.713 10.342-3.879 15-6.5Z" style="opacity:.93"/><path fill="#edc162" d="M212.5 532.5h3c.116 5.701.282 11.368.5 17-14.855 12.872-25.855 28.539-33 47-12.925 30.348-5.758 54.348 21.5 72-2.368 7.859-7.702 12.359-16 13.5a974.989 974.989 0 0 0-42-1c-12.984 2.494-25.317 6.661-37 12.5 2.073-51.105 21.073-94.605 57-130.5a243.631 243.631 0 0 1 21-16c8.396-4.86 16.73-9.693 25-14.5Z" style="opacity:.963"/><path fill="#edc162" d="M229.5 556.5c4.849 2.336 9.016 5.669 12.5 10a226.126 226.126 0 0 0-1 37c4.893 17.894 16.226 29.56 34 35a332.03 332.03 0 0 1-4.5-25c-.045-7.262 3.288-11.929 10-14-.769 5.035-.269 10.035 1.5 15 6.723 16.459 15.723 31.459 27 45a456.493 456.493 0 0 1 34 38 1271.204 1271.204 0 0 0 35 58 95.118 95.118 0 0 0 22.5 17.5c2.851 1.608 5.851 2.274 9 2a96.39 96.39 0 0 1-20.5-23.5 523.214 523.214 0 0 0-29-54l-12-14-39-37c-10.421-11.841-17.421-25.508-21-41a12.494 12.494 0 0 1 0-7 2136.487 2136.487 0 0 1 64 45 651.195 651.195 0 0 0 19 46c11.72 21.109 29.554 33.109 53.5 36a1832.362 1832.362 0 0 1 2 115c-10.612-3.776-19.778-9.776-27.5-18a237.679 237.679 0 0 1-25-39c5.136 23.605 15.136 44.939 30 64a337.868 337.868 0 0 0 26.5 27 173.118 173.118 0 0 1-4.5 21 1060.424 1060.424 0 0 1-55.5-41.5L358 841.5a19.24 19.24 0 0 1-3-9 1435.045 1435.045 0 0 0-12-66c-1.69-9.46-5.19-18.127-10.5-26l-1 2a390.034 390.034 0 0 1 7.5 89 8913.185 8913.185 0 0 1-94-85c-.667-.667-.667-1.333 0-2a52.526 52.526 0 0 1 10.5 5.5 544.457 544.457 0 0 0 36 26c4.289 2.877 8.956 3.877 14 3 3.245-2.5 4.579-5.834 4-10 .615-12.28-3.718-22.28-13-30a156.522 156.522 0 0 0-30-21c-23.427-11.062-42.427-6.062-57 15-.667.667-1.333.667-2 0-5.997-11.864-4.83-23.03 3.5-33.5 5.02-6.36 11.187-11.193 18.5-14.5a130.106 130.106 0 0 1 25.5-6.5 55.59 55.59 0 0 1 12.5-12.5c8.658-1.999 14.991.834 19 8.5a50.625 50.625 0 0 1-5 10.5c6.842 6.046 14.842 8.713 24 8a121.222 121.222 0 0 0-12.5-24.5c-7.393-10.349-17.227-14.183-29.5-11.5l-21 15c-19.29.939-34.457-6.561-45.5-22.5-4.422-6.857-6.256-14.357-5.5-22.5.462-16.76 5.629-31.927 15.5-45.5a269.221 269.221 0 0 1 22.5-25Z" style="opacity:.956"/><path fill="#edc162" d="M252.5 574.5a258.271 258.271 0 0 1 28 18.5c-16.514 4.362-21.514 14.362-15 30l-1 .5a875.262 875.262 0 0 1-12-49Z" style="opacity:.832"/><path fill="#30343d" d="M450.5 900.5h-1c-.167-68.334 0-136.667.5-205A28234.866 28234.866 0 0 1 578.5 600c1.717-1.559 3.717-2.392 6-2.5a5339.003 5339.003 0 0 0 40 109 29316.049 29316.049 0 0 0 125.5-104 1046.982 1046.982 0 0 1 31.5 20 2688665.203 2688665.203 0 0 1-331 278Z" style="opacity:.982"/><path fill="#edc162" d="M364.5 654.5a2643.988 2643.988 0 0 1 52 35.5c.951.718 1.117 1.551.5 2.5-7.248 7.39-15.748 9.556-25.5 6.5a94.879 94.879 0 0 1-12.5-16.5 222.753 222.753 0 0 1-14.5-28Z" style="opacity:.896"/></svg>