<?xml version="1.0" encoding="UTF-8"?><svg xmlns="http://www.w3.org/2000/svg" id="图层_1" data-name="图层 1" viewBox="0 0 504 522"><defs><style>.cls-1{fill:#eae9e6}.cls-1,.cls-2,.cls-3{fill-rule:evenodd}.cls-2{fill:#f7c663}.cls-3{fill:#32343e}</style></defs><path d="m387.68 157.06 116-66.06-136-51-72.05 76.09Zm-129.18-57L257.63 0l12.42 6 .74 100.41ZM116 151.13 15 93s12.44 4.81 27 9c9.79 2.82 22.35 3.8 31 6 9.73 2.47 15 6 15 6s-.76 15.52 11 21c4.47 2.08 10.64 2.18 15 4 2.38 1 9.41 9.34 9.41 9.34Zm34.08-12.25s-7.62-2.52-11.08-2.88c-7-.72-13 .62-18-.84-7.86-2.3-14-4.7-17-7.16-13.75-11.25 1.28-22.76 0-34-10.17-17.06-29-25-29-25l45-17s-2.73 26.54 6 53c4.92 6.24-6.62 13.82 21 24 5.72 2.43 16.77 4.23 16.77 4.23ZM177.61 128l-1.61-5 15.2-.06Zm51.88-19.55s-.66-8.2-.49-12.43c1.72-43.45 22-95 22-95s-24.38 26.67-35 53c-12.26 30.38-11 61-11 61s2-5.16-7-14c-5-4.91-21-10.77-24.57-18A48.36 48.36 0 0 1 169 70c-5.09-28 8-40 8-40s-17.1 11.93-24 37 15 36 15 36-10.65-1.84-19-8c-12-8.84-23-23-23-23s.75 12.67 4 23c1.81 5.76 7 12 7 12s1.72 22.86 29 22c11.63-2.91-6-15-6-15s14.73 5.73 18 5 2.29-2.36 4-2c6.15 1.28 16 3.37 16 3.37ZM253 99.19V61s-15.74 15-18 41a31.59 31.59 0 0 0 .16 4.16Z" class="cls-1"/><path d="M162.15 343.8s-5.62 2.1-7.81 4.32c-4.89 4.94-.93 13.42-.93 13.42l-6.88-27.88Zm41.73 29.72s7.06 18.5 8.09 20.85c12.14 27.7 34.11 26.77 34.11 26.77l1.85 66.2s-7.46-1.41-15.14-9.45c-8.94-9.36-18.29-28.46-18.29-28.46s5.44 22.31 15.38 37.08c5.2 7.72 19.31 20.82 19.31 20.82l-1.85 11.77s-38.55-26.55-40.48-32.93-6.56-49.09-13.45-56.51c-3.31-3.56-.2 5.21 1.12 14.83 1.41 10.36 2.29 37.69 2.29 37.69l-55-49.79s3.1.85 9.94 5.88c11.71 8.63 35.35 30 25.8-4.3-40.46-41.78-56.56-8.53-56.56-8.53s-8.82-9.45 4.92-22.93c6.06-6.88 22.7-8.48 22.7-8.48s4.58-9.57 10.84-7.69c1.73.52 5.32 1.81 6 4.47s-3.63 5.83-1.94 7.59c4 4.21 13.88 4.28 13.88 4.28s-4.85-18.74-16.94-22.07c-12.53-3.06-14.63 9.23-22.68 9.44-11.47.31-22.72-10.48-25.65-18-7.12-25.64 21.46-49 21.46-49l6.75 6s-2.89 15.08-.69 22.49c4 15.57 20.77 19.4 20.77 19.4s-3.56-10.31-3-16.73a7.42 7.42 0 0 1 4.9-6.28s-3.71 7.2 13 30.26c6.28 8.67 14.6 14.62 23 26.55 7.34 10.46 14.69 27 21.2 34.38 10.15 11.46 20.09 11.83 20.09 11.83a51.22 51.22 0 0 1-14.16-16.15c-5-8.78-9.72-21.62-16.21-30-12.94-16.64-26.18-23.18-35.94-38.46a46.26 46.26 0 0 1-6.59-18.92s37.29 25.64 37.17 26.1Zm38 27.66s-8.25 7.49-13.87 4.5c-4.87-2.59-16.33-25.55-16.33-25.55Zm-117.5-92.07s-9.18 4.73-14.25 7.89c-47 29.33-46.32 85.25-46.32 85.25s8.06-5.51 21.68-7.59c6.95-1.06 19.24 2 24.64.47 9-2.5 7.89-8 7.89-8s-34.1-13.32-2-60c2.47-3.58 9-8.88 9-8.88ZM105.63 175.47 91 187a136.93 136.93 0 0 0-18-15c-9-6-18.78-9.83-21-9-10.13 7.82-.86 23.86 9 30 6.58 4.09 14 0 14 0s-10.34-5.49-12-9c-2.61-5.52-.74-10 3-10s8.1 4.8 14 11c3.27 3.44 6 10 6 10s-9.31 33.62-49-1C8.61 169.24 0 99 0 99l102.24 53.51Zm7.59 53.22S98.55 225.24 89 227c-30.57 5.62-34 36-34 36s-7.39-11.09-7-20c.57-13.22 9-26 9-26s16.52 1.72 26-6c11.77-9.58 12-27.13 17-29a37.46 37.46 0 0 1 5.57-1.44Zm4.57 38.06S96.29 263.68 88 268c-30 15.63-53.9 58.9-58 53-7.57-10.9 1.58-34 1-53a117.65 117.65 0 0 0-10-43s11.38 11.34 15 28c2.89 13.31 6.5 22.46 12 24 15.6 4.37 31.37-33.06 50-42 5-2.4 15.05-1.65 15.05-1.65Zm4.64 30.72S117.5 299 115 300c-6 2.48-8.09-1.87-15 2.17a272.19 272.19 0 0 0-36.46 25.9c-8.67 7.22 15.54-3.61 8.52 3.37-20.92 20.8-35.32 29.48-35.32 29.48s7.15-9.35 15.77-26.45c3.16-6.27 4.77-17.1 8.79-23.88 1.73-2.91 3.53-5.84 5.4-8.72 10-15.5-5.67.82 3-12.16C78.92 276 88.29 276.37 90 275c3.74-3.12 19.19 2.38 18 7-1.61 4.72-15.09 5.1-22 11.89-8.46 8.3-10.63 11-6.83 10.11 2.38-.56 41-18.93 41-18.93Z" class="cls-2"/><path d="M391.79 161.26 504 96l-44 252-18-11 14-92-75.37 12.94ZM435 350l18 11-192 161V403.75l77.43-57.09L362 411Z" class="cls-3"/></svg>