<?xml version="1.0" encoding="UTF-8"?><svg xmlns="http://www.w3.org/2000/svg" width="505" height="528" style="shape-rendering:geometricPrecision;text-rendering:geometricPrecision;image-rendering:optimizeQuality;fill-rule:evenodd;clip-rule:evenodd"><path style="opacity:.975" d="M258.5-.5h3a57.812 57.812 0 0 0 9 5c.931 44.998 1.764 89.998 2.5 135a4677.524 4677.524 0 0 0 79-84 131.287 131.287 0 0 1 17.5-16c45.018 16.672 90.018 33.339 135 50v2a36626.715 36626.715 0 0 0-222 126.5 185.023 185.023 0 0 1-23 11.5l-1-230Z"/><path style="opacity:.933" d="M243.5.5c.597.235.93.735 1 1.5-11.984 31.104-19.318 63.271-22 96.5 1.226 18.511 6.393 35.844 15.5 52a64.31 64.31 0 0 0-1-20 187.664 187.664 0 0 1-9.5-27.5c1.409-16.311 7.576-30.478 18.5-42.5.833 56.336.667 112.67-.5 169C166.371 184.2 87.37 138.7 8.5 93a404.715 404.715 0 0 1 31 9 159.178 159.178 0 0 1 41 10l1.5 1.5c-.229 7.322 2.271 13.488 7.5 18.5a114.31 114.31 0 0 0 20 7c5.842 7.183 12.842 12.85 21 17a149.394 149.394 0 0 0 15 3c13.032.173 26.032.84 39 2 1.57 8.716 5.07 16.549 10.5 23.5a169.171 169.171 0 0 1 15.5 14.5 74.663 74.663 0 0 0 21 9.5c2.46-.66 3.126-1.994 2-4-4.366 1.339-8.366.505-12-2.5-7.29-4.9-14.124-10.4-20.5-16.5a89.622 89.622 0 0 1-8-16c-.939-5.009-.439-9.842 1.5-14.5-.987-2.321-2.654-3.987-5-5-14.556-6.805-29.889-10.472-46-11-9.762-2.937-19.762-4.27-30-4-6.751-1.626-12.917-4.46-18.5-8.5-2.58-2.828-3.746-6.162-3.5-10a142.66 142.66 0 0 1 6-22c-7.388-11.196-17.054-19.863-29-26a430.456 430.456 0 0 1 45-17c-.729 23.067 2.771 45.4 10.5 67 13.999 10.608 29.832 15.275 47.5 14a87.396 87.396 0 0 0-2-9c.318-1.147.984-1.981 2-2.5 19.074.396 33.907 8.563 44.5 24.5-1.11 3.111-.444 5.777 2 8l1 14c.288 3.243 1.622 5.91 4 8 4.939-2.552 6.605-6.552 5-12-5.012-14.007-12.846-26.173-23.5-36.5-10.472-7.16-21.972-9.994-34.5-8.5a232.712 232.712 0 0 0-11.5-1.5l4.5 4.5c.758 2.269.591 4.436-.5 6.5-17.709 2.912-28.542-4.255-32.5-21.5-7.739-10.334-11.072-22-10-35A179.29 179.29 0 0 0 142.5 94c4.285 3.149 8.951 5.149 14 6-8.926-7.445-12.759-16.945-11.5-28.5 3.276-16.89 11.443-30.89 24.5-42l1 1c-5.913 7.965-8.913 16.965-9 27a72.774 72.774 0 0 0 4.5 22c1.061 3.062 2.894 5.562 5.5 7.5l18 11c3.592 2.921 6.425 6.421 8.5 10.5.541-31.62 9.874-60.287 28-86a419.705 419.705 0 0 1 17.5-22Z"/><path style="opacity:.977" d="M501.5 101.5c1.193.47 1.86 1.47 2 3a32371.92 32371.92 0 0 0-43 249 77.667 77.667 0 0 1-18-9.5c-.616-1.4-.949-2.9-1-4.5a7008.038 7008.038 0 0 0 13-88l-131 22c-2.933.034-5.6-.799-8-2.5a97555.53 97555.53 0 0 1-51-30.5 42419.582 42419.582 0 0 1 237-139Z"/><path style="opacity:.935" d="M-.5 104.5c86.394 41.006 168.727 88.34 247 142a179.617 179.617 0 0 0-15 10c-3.9 6.975-9.567 12.142-17 15.5-5.657 1.718-10.157.218-13.5-4.5a428.858 428.858 0 0 1-5.5-23c-11.595-8.967-24.262-16.133-38-21.5a12.494 12.494 0 0 0-7 0c-1.624 3.206-.958 5.872 2 8l24 14c9.388 7.02 12.721 16.187 10 27.5-5.219-3.226-10.885-5.393-17-6.5-8.443-4.627-13.109-11.793-14-21.5a14.972 14.972 0 0 1-3.5-3c-.445 14.343 4.388 26.509 14.5 36.5 8.808 4.295 18.141 6.295 28 6-20.872 10.052-42.872 16.052-66 18a78.93 78.93 0 0 1-26 5 219.93 219.93 0 0 0-40 28 32.38 32.38 0 0 0 7-.5l4 1a217.118 217.118 0 0 1-35 30.5c-1 .667-2 .667-3 0 10.544-13.588 18.044-28.754 22.5-45.5a240.839 240.839 0 0 1 10.5-18l-3-2.5c8.638-17.332 21.972-22.999 40-17 2.982 2.191 3.315 4.524 1 7-10.462 2.477-19.295 7.644-26.5 15.5a9.465 9.465 0 0 1-1.5 2.5c15.477-5.231 30.477-11.898 45-20a64.783 64.783 0 0 0 11-8c-23.017-14.378-44.35-12.378-64 6a1099.349 1099.349 0 0 0-38 41c-3.24.442-5.073-1.058-5.5-4.5a55.692 55.692 0 0 0-1.5-9c1.776-12.99 3.443-25.99 5-39a231.265 231.265 0 0 0-3.5-23c-2.24-7.04-4.24-14.04-6-21a65.06 65.06 0 0 1 12 18l7 24c3.394 10.286 9.56 12.453 18.5 6.5 8.227-7.323 15.393-15.49 21.5-24.5 5.348-6.689 11.848-11.855 19.5-15.5a169.595 169.595 0 0 1 8-1.5c6.235 1.032 12.235 2.532 18 4.5-15.335-10.688-31.668-12.355-49-5-11.814 7.323-19.147 17.823-22 31.5-6.384-7.874-8.551-16.874-6.5-27a59.292 59.292 0 0 1 7-18 239.97 239.97 0 0 0 19.5-3.5c5.9-1.7 10.4-5.2 13.5-10.5a206.022 206.022 0 0 0 9-21c3.762-3.375 7.928-3.875 12.5-1.5a932.577 932.577 0 0 1 95 52c6.727 4.789 8.893 11.289 6.5 19.5a8.905 8.905 0 0 0 3 4c5.104-4.558 6.771-10.225 5-17-22.83-18.006-47.663-32.839-74.5-44.5a374.364 374.364 0 0 0-32-18c-10.685-4.151-18.019-.984-22 9.5a373.765 373.765 0 0 0-18-14.5 81.833 81.833 0 0 0-20.5-9.5c-3.631 3.256-4.965 7.256-4 12 2.609 7.939 7.442 14.105 14.5 18.5 3.533.903 6.867.57 10-1a48.941 48.941 0 0 1-9.5-6.5c-4.775-8.31-2.608-12.144 6.5-11.5 4.833 3.5 9 7.667 12.5 12.5 5.382 10.767 2.215 18.267-9.5 22.5-8.277 1.243-15.944-.423-23-5-12.89-7.592-22.723-18.092-29.5-31.5-9.796-21.538-16.629-43.871-20.5-67v-7Z"/><path style="opacity:.982" d="M262.5 527.5h-2c-.333-92.002 0-184.002 1-276a2731.306 2731.306 0 0 1 52.5 34l48 130a9422.195 9422.195 0 0 1 70.5-59.5c2.135-.635 4.135-.301 6 1a153.047 153.047 0 0 1 14 9.5c-63.353 53.69-126.686 107.356-190 161Z"/><path style="opacity:.932" d="M243.5 262.5c1.624-.14 2.79.527 3.5 2 .667 35.333.667 70.667 0 106-7.375 2.851-13.708 7.184-19 13-1.465 7.074 1.202 11.74 8 14 3.898-1.559 6.898-4.226 9-8 .836 6.821-.497 13.155-4 19-3.831 3.628-8.331 4.795-13.5 3.5-6.696-5.041-11.529-11.541-14.5-19.5a193.75 193.75 0 0 1-7-21 1068.072 1068.072 0 0 1-7-48c-2.97-4.749-6.303-5.082-10-1a20.431 20.431 0 0 1-1.5 5.5 470.932 470.932 0 0 0 28.5 79.5c7.077 11.289 17.244 17.622 30.5 19 .687 22.343.687 44.676 0 67-13.057-6.558-22.557-16.558-28.5-30 2.236 9.487 5.903 18.487 11 27a222.306 222.306 0 0 0 20.5 23 226.407 226.407 0 0 0-2.5 12 298.628 298.628 0 0 1-40-31 629.505 629.505 0 0 1-8-40 71.459 71.459 0 0 0-6-18 393.834 393.834 0 0 1 3 34c.667 6 .667 12 0 18a6251.862 6251.862 0 0 1-55.5-50.5c2.755.335 5.422 1.335 8 3a307.485 307.485 0 0 0 19 14c3.101 2.351 6.434 2.851 10 1.5 1.206-5.008 1.039-10.008-.5-15-9.197-12.361-21.364-20.028-36.5-23-8.801 1.149-15.468 5.482-20 13-4.274-7.277-3.774-14.277 1.5-21 6.941-7.099 15.441-10.933 25.5-11.5 3.315-7.413 8.649-9.413 16-6 1.394.956 2.061 2.289 2 4-3.222 4.006-2.556 7.006 2 9a34.033 34.033 0 0 0 8 1.5c-1.716-9.277-6.716-16.11-15-20.5-3-.667-6-.667-9 0-4.071 4.418-8.905 7.585-14.5 9.5-21.031-4.041-30.031-16.708-27-38 5.03-17.367 16.03-29.367 33-36l1.5 1c-7.159 13.52-7.659 27.187-1.5 41 3.97 5.144 8.97 8.81 15 11-1.267-6.222-1.6-12.555-1-19a14.506 14.506 0 0 1 5-4c-.339 4.023.328 8.023 2 12a121.345 121.345 0 0 0 7 13 655.256 655.256 0 0 0 28 33 713.94 713.94 0 0 0 18 31c4.299 5.305 9.466 9.472 15.5 12.5 1 .667 2 .667 3 0a56.13 56.13 0 0 1-11.5-13.5 595.06 595.06 0 0 0-15-29 318.393 318.393 0 0 0-30-30c-6-6.681-10.333-14.347-13-23-.482-3.407-.482-6.74 0-10-5.151.827-9.485 3.161-13 7a28.043 28.043 0 0 1-1.5 5c2.484 8.769 1.317 8.769-3.5 0-3.262-10.644-3.262-21.311 0-32 4.15-7.135 10.317-11.635 18.5-13.5-37.72-2.445-59.053 15.055-64 52.5.13 11.758 5.463 20.258 16 25.5-2.603 6.83-7.603 9.663-15 8.5-14.287-2.808-27.62-.475-40 7 2.24-50.417 27.24-83.917 75-100.5a877.329 877.329 0 0 1 41-7 121.236 121.236 0 0 0 15.5-9.5c9.429 6.159 15.429 14.826 18 26a549.15 549.15 0 0 1 4 52c.414.457.914.791 1.5 1a18.924 18.924 0 0 0 3-5 23.663 23.663 0 0 1-2.5-6 1275.86 1275.86 0 0 1 0-48c-.439-7.868-2.272-15.368-5.5-22.5 7.666-11.5 17.666-20.334 30-26.5Z"/></svg>