<?xml version="1.0" encoding="UTF-8"?><svg xmlns="http://www.w3.org/2000/svg" id="图层_1" data-name="图层 1" viewBox="0 0 566.93 566.93"><defs><style>.cls-1{fill:#231815}</style></defs><path d="M157.94 284a25.94 25.94 0 0 1 14.51 13.8 15.11 15.11 0 0 0 1 3.6q0 9.21-10.06 34s-8.07 17.27-9.88 17.8q-20.89-10-51.48-10-6-4.6-6-5.8v-.8c1.55-1.73 12.58-.66 12.58-1.2q22.62 1.6 26.49 1.6 1.74 0 3.87-10.2.76 0 4.06-10.2.58 0 5.81-13.6 6.19-14.4 8.52-19Zm112.38-24a16.78 16.78 0 0 1 1.79 5.8l-1.2.4c-5.31-1.33-54-4.8-54-5.2 0 0-53.35 6.93-86.7 19.6a16.71 16.71 0 0 1-4.78.6q-18.73-12.6-22.72-24.6c.13-.8.53-1.2 1.19-1.2a35.85 35.85 0 0 1 4.19 1.2c1.06 0 21.59-1.2 22.92-1.2 0 0 52.88-11.22 77.33-15.45q22.92-3.37 27.31-5.95a60.43 60.43 0 0 0 6.57-.6c1.72.8 21.98 19 28.1 26.6Zm-78.38-58.38q11.34 0 25.06 23.28v1.1c0 .69-.27 1-.82 1h-1.85c-2.87 0-6.56-.13-11.07-.41q-26.05 10.67-38.57 16.41h.59q8.35-5.37 19.89-17.31c-5.7 0-26.45-15.71-26.45-16.9.52-1.6 1.12-2.52 1.79-2.79h1l1.19 3.38q5.96 0 29.24-7.76ZM198 282.4q16.13 4.2 40.41 43.8c.8 0 1.2-.53 1.2-1.6 0-6.53-.12-34.6.42-34.6q2.92 7.89 6.17 23.26c2.39 11.29 9.81 47.14 9.81 47.94v1.6q0 1.2-1 1.2h-2c-4.52 0-55.15-74.73-57.94-78.6V284c.19-1.06 1.19-1.6 2.93-1.6ZM435.76 189h2q11.2 1.6 33 25.2 4.2 5.6 4.2 9.2v-1.58q-4 2.85-6.22 11.58c-.5 4.47-9.47 83-15.72 122-2.09 13-57.1 8.6-63.52 8.6h-9.63c-7 0-35.91 2.6-35.91 2.6s-18.47-13.33-2.62-19.6q12.89-6.6 13.1-7.2-9.48-3.19-14.11-13.4c-1.55-4.28-3.49-12.66-5.2-20.84C332.88 294.61 331 284 331 284a232 232 0 0 1-2.36-26h-.55Q321 283.8 321 317v.39c.73.93 1.39 2.85 2 5.76v.7a1.2 1.2 0 0 1-1.2 1.2h-.42q-12.58-3-24.54-16.8a16.78 16.78 0 0 1-2.84-10s28.22-43.09 33.31-56.33c-.4-3.74-3.61-21.87-3.61-21.87l.3-1v-.4c0-.41.53-.94 1.61-1.61q11.46 1.2 31.57 20.26l2.82 3.41s-6.24 70.2-5.84 72.07l-.6 1a48.41 48.41 0 0 1-.56 9.8V325l.42 2.6q15.43-14.6 15.43-20.6c-5.63-3.07-5.28-44.07-2.32-45h.63c1.3.23 3.91 2.46 6.3 4.83 2.69 2.68 5.54 13.77 5.54 13.77v6.4h.79c2.22-5 6.21 4.3 6.21 7.93v2.81q-2 15.92-4.32 15.91c-2.1 0-16.18 18.73-18.27 22.35h.59q32.81-15.3 33-16.11v-1s-7.3-63.8-8.24-67.93h.4c-.26-.4-.53-2.07-.8-4.87-1.2 0-5.16 5.87-5.16 5.87a94.88 94.88 0 0 1 2.8-16.51q-3.79-6.75-3.8-8.15a3.64 3.64 0 0 1 1.6-.4c7.73 1.07 27.87 33.81 28.4 33.81 0 0-5 72.72-5.8 73.78-.67.79-60.4 20.28-60.4 20.28q23.4-1.19 35-1.19s8.3-.3 18.49-1.6c2.93-.37 6-.82 9.11-1.38 2.7-.48 5.41-1.05 8-1.7a104 104 0 0 0 14.52-5.54 38.43 38.43 0 0 0 6.16-4.77c1.69-1.65 3.33-4.79 4.58-7.64 1.39-3.18 2.31-6 2.31-6 2.67-14.18 3.61-38.57 3.22-38.57.39-4 .58-6.92.58-8.62v-23.7a203.67 203.67 0 0 0-3.89-41.52 42.65 42.65 0 0 0-8.17 25.85c-1.68 12.93-1.94 35.2-1.94 41.33 0 0-2.2 30.25-3.8 30.25h-.6c-8-3.83-13.47-15.84-13.2-15.84 0 0 3-45 4.16-45q3.4 0 9.2 6.2l7.24-56.6v-1.2c-1.57-4-2.44-6.27-3-6.8v-1a4.91 4.91 0 0 1 1.79-.73Z" class="cls-1"/></svg>