<?xml version="1.0" encoding="UTF-8"?><svg xmlns="http://www.w3.org/2000/svg" width="391" height="188" style="shape-rendering:geometricPrecision;text-rendering:geometricPrecision;image-rendering:optimizeQuality;fill-rule:evenodd;clip-rule:evenodd"><path style="opacity:.965" fill="#221714" d="M342.5 5.5a32.438 32.438 0 0 1 8 .5c11.292 6.281 21.125 14.448 29.5 24.5 2.324 2.98 3.824 6.313 4.5 10-1.175-.219-2.175.114-3 1a42.635 42.635 0 0 0-3.5 8 4429.558 4429.558 0 0 1-16 123c-1.167 2.5-3 4.333-5.5 5.5a68.39 68.39 0 0 1-16 3c-29.703.206-59.37.873-89 2-6.545-3.907-9.045-9.407-7.5-16.5a395.142 395.142 0 0 0 16.5-10c-5.75-3.25-9.916-7.916-12.5-14a476.808 476.808 0 0 1-12-63c-5.158 20.617-6.658 41.284-4.5 62-4.232.427-8.232-.74-12-3.5-6.833-4.167-12.333-9.667-16.5-16.5-.667-3-.667-6 0-9a564.37 564.37 0 0 0 32.5-55 1314.794 1314.794 0 0 1-4-20.5c1.296-3.107 3.629-4.107 7-3 12.18 5.34 22.513 13.173 31 23.5a1042.24 1042.24 0 0 0-6.5 85 85.227 85.227 0 0 0 13.5-17.5 40.906 40.906 0 0 1-3.5-15.5 191.222 191.222 0 0 1 .5-31c4.048-.059 7.215 1.608 9.5 5a51.296 51.296 0 0 1 5.5 18c1.322-.17 2.489.163 3.5 1 3.76 7.747 4.093 15.747 1 24a331.037 331.037 0 0 0-18.5 23.5c10.577-3.782 20.91-8.449 31-14a5970.222 5970.222 0 0 0-9.5-71.5l-4 4a44.384 44.384 0 0 1 1.5-15 29.999 29.999 0 0 0-3-8.5c.895-2.623 2.561-2.956 5-1A199.25 199.25 0 0 1 321 76.5a1086.475 1086.475 0 0 1-6 75 2615.825 2615.825 0 0 1-54.5 18.5 296.958 296.958 0 0 0 64-5c16.216-2.883 25.716-12.383 28.5-28.5a466.947 466.947 0 0 0 2-88 90.88 90.88 0 0 0-3-17c-3.09 4.182-5.09 8.849-6 14a2115.71 2115.71 0 0 1-6 79c-1.067 1.783-2.567 2.283-4.5 1.5-6.14-4.792-9.807-10.959-11-18.5a1271.99 1271.99 0 0 1 3.5-40c.519-1.016 1.353-1.682 2.5-2a36.715 36.715 0 0 1 7 4c2.711-18.196 5.378-36.363 8-54.5a22.146 22.146 0 0 1-3-9.5Z"/><path style="opacity:.959" fill="#221714" d="M98.5 17.5c9.472.994 16.638 5.66 21.5 14 2.872 3.682 5.038 7.682 6.5 12-5.011-.166-10.011 0-15 .5a716.427 716.427 0 0 0-33 14c-1.947.991-3.947 1.325-6 1 7.212-4.206 13.545-9.539 19-16a145.635 145.635 0 0 1-24-16c-1.194-2.94-.194-4.273 3-4 .498 1.158 1.332 1.991 2.5 2.5 8.876-1.837 17.376-4.504 25.5-8Z"/><path style="opacity:.973" fill="#221714" d="M144.5 49.5c2.357-.163 4.69.003 7 .5A247.646 247.646 0 0 1 179 75.5a106.116 106.116 0 0 1 2.5 6.5c-.608.87-1.441 1.37-2.5 1.5a407.003 407.003 0 0 0-60.5-4.5 500.444 500.444 0 0 0-83 19.5c-12.174-5.505-20.507-14.505-25-27a129.706 129.706 0 0 0 31-.5 2800.345 2800.345 0 0 1 92-18c3.927-.724 7.594-1.891 11-3.5Z"/><path style="opacity:.946" fill="#221714" d="M103.5 98.5c5.19.426 9.857 2.259 14 5.5a199.532 199.532 0 0 1 29.5 37.5 613.783 613.783 0 0 1 1.5-35l1 1c6.759 24.299 11.759 48.799 15 73.5-3.645.259-6.478-1.241-8.5-4.5a1405.101 1405.101 0 0 1-51-71c-1.202-2.177-1.702-4.511-1.5-7Z"/><path style="opacity:.964" fill="#231714" d="M64.5 100.5c10.267 2.146 16.267 8.479 18 19-3.42 18.438-10.253 35.438-20.5 51-16.698-7.202-34.198-10.702-52.5-10.5L5 155.5c-.684-1.284-.517-2.451.5-3.5a217.592 217.592 0 0 1 37.5 1.5 36356.436 36356.436 0 0 1 21.5-53Z"/></svg>