<?xml version="1.0" encoding="UTF-8"?><svg xmlns="http://www.w3.org/2000/svg" viewBox="0 0 180.11 348.98"><defs><style>.cls-1{fill:#231815}</style></defs><g id="图层_2" data-name="图层 2"><g id="图层_1-2" data-name="图层 1"><path d="M65.94 82.38a25.94 25.94 0 0 1 14.51 13.8 15.23 15.23 0 0 0 1 3.6q0 9.19-10.06 34s-8.07 17.26-9.88 17.8c-13.93-6.67-29.09-7-49.48-7q-6-4.61-6-5.8V138c1.55-1.73 12.58-.67 12.58-1.2 15.1 1.06 21.93-1.4 24.52-1.4q1.74 0 3.87-10.2.77 0 4.06-10.2.59 0 5.81-13.6Q63 87 65.36 82.38Zm112.38-24a16.78 16.78 0 0 1 1.79 5.8l-1.2.4c-5.31-1.34-54-4.8-54-5.2 0 0-51.35 9.93-84.7 22.6a16.71 16.71 0 0 1-4.78.6Q16.68 70 12.7 58c.13-.8.53-1.2 1.19-1.2a35.85 35.85 0 0 1 4.19 1.2c1.06 0 21.59-1.2 22.92-1.2 0 0 50.88-14.22 75.33-18.45q22.92-3.37 27.31-5.95a60.43 60.43 0 0 0 6.57-.6c1.73.77 21.99 18.98 28.11 26.58ZM99.94 0Q111.28 0 125 23.27v1.08c0 .69-.27 1-.82 1h-1.85q-4.31 0-11.07-.41-26.05 10.7-38.57 16.44h.59Q81.63 36 93.17 24.07c-5.7 0-26.45-15.72-26.45-16.91.52-1.59 1.12-2.52 1.79-2.78h1l1.19 3.38q5.96 0 29.24-7.76Zm6 80.78q16.13 4.2 40.41 43.8c.8 0 1.2-.53 1.2-1.6 0-6.53-.12-34.6.42-34.6a175.6 175.6 0 0 1 6.17 23.25c2.49 11.78 9.81 46.32 9.81 48v1.6q0 1.2-1 1.2h-2c-4.52 0-55.15-74.73-57.94-78.6v-1.4c.25-1.12 1.25-1.65 2.99-1.65ZM139.76 171.38h2q11.2 1.6 33 25.2 4.2 5.59 4.2 9.2v-1.58q-4 2.85-6.22 11.58c-.5 4.47-9.47 83-15.72 122-2.09 13-57.1 8.6-63.52 8.6h-9.59C77 346.38 48 349 48 349s-18.47-13.34-2.62-19.6q12.88-6.6 13.1-7.2Q49 319 44.37 308.78c-1.55-4.28-1.49-9.66-3.2-17.85C38.88 280 37 269.38 37 269.38a232.22 232.22 0 0 1-2.36-26h-.55Q27 269.18 27 302.32v.4c.73.93 1.39 2.85 2 5.76v.7a1.2 1.2 0 0 1-1.2 1.2h-.42q-12.58-3-24.54-16.8a16.8 16.8 0 0 1-2.84-10s28.22-43.09 33.31-56.33c-.4-3.75-3.61-21.87-3.61-21.87l.3-1V204c0-.4.53-.93 1.61-1.6 7.64.8 16.17 4.55 29.57 17.26L64 223s-6.24 70.2-5.84 72.06l-.6 1a48.34 48.34 0 0 1-.56 9.8v1.48l.42 2.6q15.43-14.61 15.43-20.6c-5.63-3.07-5.28-44.07-2.32-45h.63c1.3.22 3.91 2.45 6.3 4.83C80.15 251.88 83 263 83 263v6.4h.79c2.22-5 6.21 4.3 6.21 7.92v2.82Q88 296 85.68 296c-2.1 0-16.18 18.72-18.27 22.35H68q32.81-15.3 33-16.11v-1s-7.3-63.8-8.24-67.92h.4a19 19 0 0 1-.8-4.88c-1.2 0-5.16 5.88-5.16 5.88a94.57 94.57 0 0 1 2.8-16.45c-2.53-4.51-3.8-7.22-3.8-8.15a3.51 3.51 0 0 1 1.6-.4c7.73 1.06 27.87 33.81 28.4 33.81 0 0-5 72.72-5.8 73.77-.67.8-60.4 20.29-60.4 20.29Q73.4 336 85 336s8.3-.3 18.49-1.6c2.93-.37 6-.83 9.11-1.38 2.7-.49 5.41-1 8-1.7a105.29 105.29 0 0 0 14.52-5.54 38.48 38.48 0 0 0 6.16-4.78c1.69-1.64 3.33-4.78 4.58-7.64 1.39-3.18 2.31-6 2.31-6 2.67-14.19 3.61-38.57 3.22-38.57q.59-6.07.58-8.62v-23.7a203.84 203.84 0 0 0-3.89-41.53 42.68 42.68 0 0 0-8.17 25.86c-1.65 12.93-1.91 35.2-1.91 41.33 0 0-2.2 30.25-3.8 30.25h-.6c-8-3.83-13.47-15.85-13.2-15.85 0 0 3-45 4.16-45q3.41 0 9.2 6.2L141 181.1v-1.2c-1.57-4-2.44-6.26-3-6.8v-1a4.8 4.8 0 0 1 1.76-.72Z" class="cls-1"/></g></g></svg>